<svg width="32" height="32" xmlns="http://www.w3.org/2000/svg" xml:space="preserve" version="1.1">
 <g>
  <title>Layer 1</title>
  <path stroke="#1f2937" stroke-width="0.3" id="svg_3" d="m22.12485,26.53004c0.07708,-2.82624 0.27627,-5.64445 0.48932,-8.46265c0.05196,-0.68244 0.07968,-1.36667 0.14117,-2.04733c0.02598,-0.28852 -0.07535,-0.34122 -0.31697,-0.27601c-2.13481,0.57436 -4.27049,1.14783 -6.40616,1.71772c-0.18533,0.04913 -0.29099,0.15721 -0.35941,0.34301c-0.52223,1.41937 -1.01241,2.84947 -1.41166,4.31082c-0.1377,0.50558 0.01212,1.03349 -0.10826,1.54621c-0.04763,0.20455 -0.08487,0.37874 -0.29619,0.43948c-0.33429,0.09647 -0.63135,-0.00625 -0.8825,-0.23403c-0.18187,-0.16436 -0.09613,-0.36981 0.00087,-0.53148c0.96564,-1.60785 1.22632,-3.48278 1.8698,-5.21211c0.06062,-0.16257 0.17927,-0.38142 -0.17841,-0.2778c-3.40184,0.98168 -6.82793,1.88208 -10.12151,3.22642c-0.18793,0.07682 -0.35248,0.17954 -0.49798,0.33943c-0.35768,0.39124 -0.82015,0.39571 -1.16917,-0.01251c-0.20958,-0.24564 -0.47979,-0.53059 -0.33862,-0.90218c0.13857,-0.36355 0.48845,-0.39303 0.81322,-0.36445c0.94919,0.08486 1.81437,-0.27601 2.70207,-0.51719c2.91512,-0.79231 5.82678,-1.59445 8.74449,-2.37515c0.3265,-0.08754 0.46247,-0.27512 0.57679,-0.57525c1.91397,-5.01738 4.1631,-9.87398 6.66598,-14.60553c0.24163,-0.45645 0.50664,-0.90397 0.86518,-1.27645c0.44775,-0.46628 0.89809,-0.34658 1.04878,0.28673c0.11345,0.47789 0.12818,0.97186 0.11778,1.46404c-0.04677,2.26171 -0.21824,4.51716 -0.37067,6.77262c-0.11692,1.73648 -0.23903,3.47206 -0.3672,5.20765c-0.01732,0.23671 0.02252,0.33586 0.27714,0.25726c0.86432,-0.26887 1.79012,-0.30638 2.6094,-0.75748c0.25895,-0.14203 0.54474,-0.04466 0.76645,0.14828c0.14117,0.12327 0.18014,0.30638 0.11085,0.49039c-0.10566,0.28227 -0.34469,0.3314 -0.60017,0.34658c-0.98297,0.05806 -1.93735,0.3046 -2.90299,0.477c-0.27107,0.04824 -0.34382,0.20545 -0.35854,0.45913c-0.14723,2.53951 -0.30139,5.07812 -0.45035,7.61763c-0.10219,1.73916 -0.11432,3.47921 -0.07968,5.22104c0.01126,0.56007 0.07102,1.08976 0.40444,1.56497c0.15849,0.22599 0.24596,0.50111 0.1429,0.80214c-0.07275,0.21349 -0.16975,0.37874 -0.4157,0.38231c-0.25115,0.00357 -0.41051,-0.12952 -0.47633,-0.3707c-0.15675,-0.57615 -0.22084,-1.16926 -0.23383,-1.76327c-0.01905,-0.95399 -0.00433,-1.90709 -0.00433,-2.85929zm1.25404,-25.35489c-0.86258,0.72532 -7.21938,14.50905 -7.23757,15.66849c0.1429,-0.03662 0.28147,-0.06967 0.41744,-0.10808c1.87586,-0.53148 3.75172,-1.06386 5.62758,-1.59534c0.66772,-0.18937 0.66253,-0.18758 0.71103,-0.91111c0.10133,-1.51227 0.21478,-3.02454 0.31264,-4.53682c0.16368,-2.53683 0.35681,-5.07187 0.30658,-7.61763c-0.00606,-0.29209 0.01126,-0.59312 -0.1377,-0.8995l0,0z"/>
 </g>

</svg>