<?xml version="1.0" encoding="UTF-8" standalone="no" ?>
<!DOCTYPE svg PUBLIC "-//W3C//DTD SVG 1.1//EN" "http://www.w3.org/Graphics/SVG/1.1/DTD/svg11.dtd">
<svg xmlns="http://www.w3.org/2000/svg" xmlns:xlink="http://www.w3.org/1999/xlink" version="1.1" width="1366" height="768" viewBox="0 0 1366 768" xml:space="preserve">
<desc>Created with Fabric.js 5.2.4</desc>
<defs>
</defs>
<rect x="0" y="0" width="100%" height="100%" fill="transparent"></rect>
<g transform="matrix(0 0 0 0 0 0)" id="06cf03d5-3326-4f12-9f73-058197333a12"  >
</g>
<g transform="matrix(1 0 0 1 683 384)" id="0feacc8a-a2ae-470d-84ba-09909e18bcef"  >
<rect style="stroke: none; stroke-width: 1; stroke-dasharray: none; stroke-linecap: butt; stroke-dashoffset: 0; stroke-linejoin: miter; stroke-miterlimit: 4; fill: rgb(255,255,255); fill-rule: nonzero; opacity: 1; visibility: hidden;" vector-effect="non-scaling-stroke"  x="-683" y="-384" rx="0" ry="0" width="1366" height="768" />
</g>
<g transform="matrix(2.13 0 0 2.13 315.22 384)"  >
<path style="stroke: none; stroke-width: 1; stroke-dasharray: none; stroke-linecap: butt; stroke-dashoffset: 0; stroke-linejoin: miter; stroke-miterlimit: 4; fill: rgb(255,255,255); fill-rule: nonzero; opacity: 1;" vector-effect="non-scaling-stroke"  transform=" translate(-484.76, -384.15)" d="M 569.15 501.9 C 570.04 470.26 572.34 438.71 574.8 407.15999999999997 C 575.4 399.52 575.7199999999999 391.85999999999996 576.43 384.23999999999995 C 576.7299999999999 381.00999999999993 575.56 380.41999999999996 572.77 381.15 C 548.12 387.58 523.46 394 498.79999999999995 400.38 C 496.65999999999997 400.93 495.43999999999994 402.14 494.65 404.21999999999997 C 488.62 420.10999999999996 482.96 436.11999999999995 478.34999999999997 452.47999999999996 C 476.76 458.14 478.48999999999995 464.04999999999995 477.09999999999997 469.78999999999996 C 476.54999999999995 472.08 476.11999999999995 474.03 473.67999999999995 474.71 C 469.81999999999994 475.78999999999996 466.38999999999993 474.64 463.48999999999995 472.09 C 461.38999999999993 470.25 462.37999999999994 467.95 463.49999999999994 466.14 C 474.6499999999999 448.14 477.65999999999997 427.15 485.0899999999999 407.78999999999996 C 485.7899999999999 405.96999999999997 487.1599999999999 403.52 483.0299999999999 404.67999999999995 C 443.7499999999999 415.66999999999996 404.18999999999994 425.74999999999994 366.1599999999999 440.79999999999995 C 363.9899999999999 441.65999999999997 362.0899999999999 442.80999999999995 360.4099999999999 444.59999999999997 C 356.2799999999999 448.97999999999996 350.9399999999999 449.03 346.9099999999999 444.46 C 344.4899999999999 441.71 341.3699999999999 438.52 342.9999999999999 434.35999999999996 C 344.5999999999999 430.28999999999996 348.6399999999999 429.96 352.3899999999999 430.28 C 363.34999999999985 431.22999999999996 373.33999999999986 427.19 383.58999999999986 424.48999999999995 C 417.2499999999999 415.61999999999995 450.8699999999999 406.63999999999993 484.55999999999983 397.9 C 488.3299999999998 396.91999999999996 489.8999999999998 394.82 491.21999999999986 391.46 C 513.3199999999998 335.28999999999996 539.2899999999998 280.91999999999996 568.1899999999998 227.95 C 570.9799999999998 222.83999999999997 574.0399999999998 217.82999999999998 578.1799999999998 213.66 C 583.3499999999998 208.44 588.5499999999998 209.78 590.2899999999998 216.87 C 591.5999999999998 222.22 591.7699999999999 227.75 591.6499999999999 233.26 C 591.1099999999999 258.58 589.1299999999999 283.83 587.3699999999999 309.08 C 586.0199999999999 328.52 584.6099999999999 347.95 583.1299999999999 367.38 C 582.9299999999998 370.03 583.3899999999999 371.14 586.3299999999999 370.26 C 596.31 367.25 606.9999999999999 366.83 616.4599999999999 361.78 C 619.4499999999999 360.19 622.7499999999999 361.28 625.31 363.44 C 626.9399999999999 364.82 627.39 366.87 626.5899999999999 368.93 C 625.3699999999999 372.09000000000003 622.6099999999999 372.64 619.66 372.81 C 608.31 373.46 597.29 376.22 586.14 378.15 C 583.01 378.69 582.17 380.45 582 383.28999999999996 C 580.3 411.71999999999997 578.52 440.14 576.8 468.56999999999994 C 575.62 488.03999999999996 575.4799999999999 507.5199999999999 575.88 527.02 C 576.01 533.29 576.7 539.22 580.55 544.54 C 582.38 547.0699999999999 583.39 550.15 582.1999999999999 553.52 C 581.3599999999999 555.91 580.2399999999999 557.76 577.4 557.8 C 574.5 557.8399999999999 572.66 556.3499999999999 571.9 553.65 C 570.09 547.1999999999999 569.35 540.56 569.1999999999999 533.91 C 568.98 523.23 569.15 512.56 569.15 501.9 z M 583.63 218.05 C 573.67 226.17000000000002 500.27 380.48 500.06 393.46000000000004 C 501.71 393.05 503.31 392.68000000000006 504.88 392.25000000000006 C 526.54 386.30000000000007 548.2 380.34000000000003 569.86 374.39000000000004 C 577.57 372.27000000000004 577.51 372.29 578.07 364.19000000000005 C 579.24 347.26000000000005 580.5500000000001 330.33000000000004 581.6800000000001 313.40000000000003 C 583.57 285.00000000000006 585.8000000000001 256.62 585.22 228.12000000000003 C 585.15 224.85 585.35 221.48 583.63 218.05 z" stroke-linecap="round" />
</g>
<g transform="matrix(2.13 0 0 2.13 815.27 373.55)"  >
<path style="stroke: none; stroke-width: 1; stroke-dasharray: none; stroke-linecap: butt; stroke-dashoffset: 0; stroke-linejoin: miter; stroke-miterlimit: 4; fill: rgb(255,255,255); fill-rule: nonzero; opacity: 1;" vector-effect="non-scaling-stroke"  transform=" translate(-719.26, -379.16)" d="M 675.76 454.38 C 675.9399999999999 451.31 677.99 449.61 681 448.23 C 711.28 434.29 735.5 414.44 745.78 381.15000000000003 C 750.36 366.3 747.16 359.59000000000003 732.6999999999999 353.85 C 730.8499999999999 353.11 728.9499999999999 352.48 727.05 351.86 C 716.8 348.48 715.92 345.67 722.81 337.15000000000003 C 726.9899999999999 331.97 731.3299999999999 326.91 735.8299999999999 322.00000000000006 C 741.6999999999999 315.61000000000007 745.8799999999999 307.99000000000007 751.31 301.2900000000001 C 752.3599999999999 300.00000000000006 753.4499999999999 298.7200000000001 755.3599999999999 298.7000000000001 C 758.5299999999999 298.6500000000001 760.7699999999999 300.2100000000001 762.2599999999999 302.8500000000001 C 763.8299999999999 305.62000000000006 761.2799999999999 306.9500000000001 759.7899999999998 308.0900000000001 C 749.5799999999998 315.8800000000001 739.8599999999999 324.18000000000006 731.3099999999998 333.7900000000001 C 729.2099999999998 336.1500000000001 727.3099999999998 338.68000000000006 725.2399999999998 341.0800000000001 C 722.6999999999998 344.0200000000001 723.0399999999997 345.8800000000001 726.9499999999998 347.1500000000001 C 730.7399999999998 348.3800000000001 734.4799999999998 349.8400000000001 738.0699999999998 351.5700000000001 C 750.2099999999998 357.4400000000001 754.1499999999999 365.1100000000001 751.2299999999998 378.3800000000001 C 747.4799999999998 395.4300000000001 739.9899999999998 410.7600000000001 728.2099999999998 423.7400000000001 C 715.0399999999998 438.2600000000001 700.2499999999998 450.8100000000001 682.1599999999999 458.92000000000013 C 678.09 460.73 675.68 458.99 675.76 454.38 z" stroke-linecap="round" />
</g>
<g transform="matrix(2.13 0 0 2.13 695.81 406.14)"  >
<path style="stroke: none; stroke-width: 1; stroke-dasharray: none; stroke-linecap: butt; stroke-dashoffset: 0; stroke-linejoin: miter; stroke-miterlimit: 4; fill: rgb(255,255,255); fill-rule: nonzero; opacity: 1;" vector-effect="non-scaling-stroke"  transform=" translate(-663.22, -394.4)" d="M 707.31 388.44 C 707.2199999999999 391.69 705.31 393.63 702.4599999999999 394.71 C 693.41 398.14 684.9 402.68 676.3399999999999 407.13 C 669.29 410.79 665.8899999999999 409.56 662.66 402.13 C 660.67 397.56 658.75 392.94 657 388.27 C 655.97 385.51 654.73 385.39 652.79 387.34 C 645.9 394.27 638.0899999999999 400.34 633.5899999999999 409.42999999999995 C 631.2199999999999 414.21999999999997 626.5799999999999 415.71999999999997 622.8199999999999 413.67999999999995 C 619.14 411.67999999999995 617.93 406.88999999999993 620.4699999999999 402.28999999999996 C 625.0299999999999 394.04999999999995 632.1199999999999 387.81999999999994 638.2499999999999 380.85999999999996 C 639.6399999999999 379.28 642.4099999999999 378.24999999999994 644.1199999999999 380.09 C 646.8799999999999 383.04999999999995 648.2599999999999 381.03999999999996 649.9399999999999 379.2 C 650.8399999999999 378.21999999999997 651.64 377.13 652.6099999999999 376.22999999999996 C 656.3499999999999 372.74999999999994 660.5899999999999 373.90999999999997 661.3499999999999 378.99999999999994 C 662.2099999999999 384.7799999999999 664.9699999999999 389.63999999999993 667.4899999999999 394.68999999999994 C 669.2999999999998 398.3399999999999 671.1399999999999 399.50999999999993 675.1099999999999 397.0199999999999 C 682.0099999999999 392.69999999999993 689.4399999999999 389.25999999999993 695.9499999999999 384.2799999999999 C 698.4499999999999 382.3599999999999 701.2599999999999 381.3999999999999 704.31 383.06999999999994 C 706.38 384.2 707.32 386.06 707.31 388.44 z" stroke-linecap="round" />
</g>
<g transform="matrix(2.13 0 0 2.13 1216.32 265.02)"  >
<path style="stroke: none; stroke-width: 1; stroke-dasharray: none; stroke-linecap: butt; stroke-dashoffset: 0; stroke-linejoin: miter; stroke-miterlimit: 4; fill: rgb(255,255,255); fill-rule: nonzero; opacity: 1;" vector-effect="non-scaling-stroke"  transform=" translate(-907.41, -328.21)" d="M 849.86 339 C 855.03 335.14 860.15 331.21 865.38 327.44 C 868.5 325.19 871.92 323.46999999999997 875.74 322.66 C 883.23 321.07000000000005 888.63 324.41 890.23 331.86 C 890.85 334.77000000000004 891.14 337.79 891.24 340.78000000000003 C 891.39 345.14000000000004 893.89 345.56 897.3100000000001 344.85 C 907.57 342.74 917.83 340.61 928.11 338.56 C 942.62 335.66 957.0500000000001 332.38 971.9 331.05 C 965.18 332.75 958.47 334.46000000000004 951.75 336.15000000000003 C 934.01 340.61 916.28 345.15000000000003 898.51 349.49 C 888.63 351.90000000000003 885.66 349.47 885.4 339.35 C 885.36 337.69 885.36 336.02000000000004 885.29 334.36 C 884.9699999999999 326.74 881.42 324.14 874.12 326.73 C 864.46 330.15000000000003 857.35 337.38 849.8 343.88 C 848.92 344.64 848.13 345.51 847.27 346.29 C 846.3199999999999 347.14000000000004 845.24 347.40000000000003 844.06 346.76000000000005 C 843.02 346.19000000000005 842.7399999999999 345.14000000000004 843.01 344.19000000000005 C 845.93 333.50000000000006 845.65 322.4100000000001 847.18 311.55000000000007 C 847.77 307.3400000000001 851.81 305.14000000000004 855.3199999999999 306.43000000000006 C 858.91 307.75000000000006 860.4 312.02000000000004 858.27 316.12000000000006 C 855.1899999999999 322.0400000000001 852.43 328.08000000000004 850.15 334.3500000000001 C 849.66 335.7100000000001 849.35 337.13000000000005 848.9499999999999 338.5200000000001 C 849.26 338.67 849.56 338.84 849.86 339 z" stroke-linecap="round" />
</g>
<g transform="matrix(2.13 0 0 2.13 982 317.68)"  >
<path style="stroke: none; stroke-width: 1; stroke-dasharray: none; stroke-linecap: butt; stroke-dashoffset: 0; stroke-linejoin: miter; stroke-miterlimit: 4; fill: rgb(255,255,255); fill-rule: nonzero; opacity: 1;" vector-effect="non-scaling-stroke"  transform=" translate(-797.46, -352.91)" d="M 771.73 358.36 C 771.59 353.29 771.78 348.23 776.01 344.58000000000004 C 778.67 342.29 781.81 340.88000000000005 785.13 343.12000000000006 C 788.29 345.25000000000006 787.59 348.2200000000001 786.13 351.12000000000006 C 786.06 351.27000000000004 785.98 351.4200000000001 785.9399999999999 351.58000000000004 C 785.29 354.32000000000005 783.8299999999999 358.00000000000006 785.5799999999999 359.65000000000003 C 787.53 361.49 790.27 358.42 792.54 357.29 C 799.8499999999999 353.65000000000003 806.77 349.34000000000003 813.2199999999999 344.32 C 814.18 343.57 815.7799999999999 342.88 815.2099999999999 341.26 C 814.7699999999999 340.01 813.3 340.07 812.1899999999999 339.86 C 808.0799999999999 339.09000000000003 804.06 337.13 799.88 340.3 C 798.47 341.37 795.65 340.86 794.75 338.69 C 793.67 336.07 796.03 335.1 797.88 334.57 C 804.76 332.64 811.71 332.46999999999997 818.51 334.86 C 823.66 336.67 824.67 340.68 821.14 345.04 C 818.08 348.82 814.25 351.82 810.3 354.59000000000003 C 802.67 359.93 794.9399999999999 365.14000000000004 787.13 370.21000000000004 C 778.96 375.52000000000004 772.54 372.18000000000006 771.76 362.36 C 771.64 361.03 771.73 359.69 771.73 358.36 z" stroke-linecap="round" />
</g>
</svg>